<svg xmlns="http://www.w3.org/2000/svg" viewBox="0 0 2821.7 739.6"><defs><style>.cls-1{fill:#fefefe;}.cls-2{fill:#25d366;}.cls-3{fill:#fff;}</style></defs><g id="Camada_2" data-name="Camada 2"><g id="Camada_1-2" data-name="Camada 1"><path class="cls-1" d="M373.6,663.2a302.81,302.81,0,0,1-166.7-50L90.5,650.4l37.7-112.6A300.85,300.85,0,0,1,70.5,360.3c0-167,135.9-302.9,302.9-302.9S676.3,193.3,676.3,360.3,540.4,663.2,373.4,663.2ZM373.6,0C174.7,0,13.4,161.4,13.4,360.3A360,360,0,0,0,65,546.4L0,739.6l199.4-63.9a359.53,359.53,0,0,0,174.2,44.9c198.9,0,360.2-161.3,360.2-360.2S572.5,0,373.6,0Z"/><path class="cls-2" d="M373.6,57.4c-167,0-302.9,135.9-302.9,302.9a300.63,300.63,0,0,0,57.7,177.5L90.6,650.4l116.5-37.2a300.7,300.7,0,0,0,166.7,50c167,0,302.9-135.9,302.9-302.9S540.8,57.4,373.8,57.4Z"/><path class="cls-1" d="M289,211.2c-5.9-14.1-10.3-14.6-19.2-15-3.4-.2-6.8-.3-10.2-.4-11.6,0-23.7,3.4-31,10.9-8.9,9.1-31,30.3-31,73.7s31.7,85.5,36,91.4c4.5,5.9,61.8,96.3,150.8,133.2,69.6,28.8,90.3,26.2,106.1,22.8,23.1-5,52.2-22.1,59.5-42.7s7.3-38.3,5.2-42-8-5.9-16.9-10.3-52.2-25.8-60.4-28.7c-8-3-15.7-2-21.7,6.6-8.5,11.9-16.9,24-23.7,31.3-5.3,5.7-14.1,6.4-21.4,3.4-9.8-4.1-37.2-13.7-71.1-43.8-26.2-23.3-44-52.3-49.1-61.1s-.5-14.1,3.6-18.9c4.5-5.5,8.7-9.4,13.2-14.6s6.9-7.8,9.8-13.9c3-5.9.9-11.9-1.2-16.4s-20-47.8-27.3-65.5Z"/><path class="cls-3" d="M2447.7,441.7a52.71,52.71,0,0,1-7.3,18.5,40.05,40.05,0,0,1-13.5,13c-5.5,3.2-12.5,5-20.7,5-8,0-15-1.6-20.5-5a41.54,41.54,0,0,1-13.7-13,57,57,0,0,1-7.5-18.5,97.61,97.61,0,0,1-2.3-21.5,111.45,111.45,0,0,1,2.1-21.9,53.76,53.76,0,0,1,7.3-18.7,41.18,41.18,0,0,1,13.5-13.4c5.5-3.4,12.5-5.2,20.7-5.2,8,0,14.8,1.8,20.3,5.2a43.07,43.07,0,0,1,13.7,13.5,57.84,57.84,0,0,1,7.7,18.9,97,97,0,0,1,2.3,21.5A112.15,112.15,0,0,1,2447.7,441.7Zm47.3-57.6a95.85,95.85,0,0,0-15.1-31.3,78,78,0,0,0-25.8-21.5c-10.3-5.3-22.8-8.2-37.2-8.2a71.66,71.66,0,0,0-31.2,6.8,55.8,55.8,0,0,0-23.3,21.5h-.7V328.1H2314v247h50.2V488.4h.7a59.94,59.94,0,0,0,23.5,20.3,71.07,71.07,0,0,0,31.3,6.9c13.4,0,25.1-2.7,35.3-7.8a74.29,74.29,0,0,0,25.1-20.8,86,86,0,0,0,15-30.1,122.64,122.64,0,0,0,5-35.4,135.63,135.63,0,0,0-5-37.4h-.1Zm-247.7,57.6a52.71,52.71,0,0,1-7.3,18.5,40.05,40.05,0,0,1-13.5,13c-5.5,3.2-12.5,5-20.7,5-8,0-14.8-1.6-20.5-5a41.54,41.54,0,0,1-13.7-13,57,57,0,0,1-7.5-18.5,91.94,91.94,0,0,1-2.3-21.5,111.45,111.45,0,0,1,2.1-21.9,53.76,53.76,0,0,1,7.3-18.7,41.18,41.18,0,0,1,13.5-13.4c5.5-3.4,12.5-5.2,20.7-5.2,8,0,14.8,1.8,20.3,5.2a43.07,43.07,0,0,1,13.7,13.5,57.84,57.84,0,0,1,7.7,18.9,97,97,0,0,1,2.3,21.5A104.76,104.76,0,0,1,2247.3,441.7Zm32.2-88.9a76,76,0,0,0-25.8-21.5c-10.3-5.3-22.8-8.2-37.2-8.2a71.66,71.66,0,0,0-31.2,6.8,55.8,55.8,0,0,0-23.3,21.5h-.7V328.1h-47.7v247h50.2V488.4h.7a59.94,59.94,0,0,0,23.5,20.3,71.07,71.07,0,0,0,31.3,6.9c13.5,0,25.1-2.7,35.3-7.8a74.29,74.29,0,0,0,25.1-20.8,87.9,87.9,0,0,0,15.1-30.1,128.82,128.82,0,0,0,5-35.4,135.63,135.63,0,0,0-5-37.4,92.36,92.36,0,0,0-15.3-31.3ZM1949,413.3l32.9-92.8h.7l31.9,92.8Zm5.4-155.1-95.6,252.7h55.9l19.8-56.3h94.6l19.1,56.3h57.7l-94.6-252.7h-56.9Zm-99.7,172.6a47.22,47.22,0,0,0-13.2-14.6,70,70,0,0,0-18.5-9.4c-7-2.3-14.2-4.3-21.4-6.1-7.1-1.6-14.1-3.2-20.8-4.6a148.24,148.24,0,0,1-18.2-4.8,37.72,37.72,0,0,1-12.8-6.9,13.39,13.39,0,0,1-5-11c0-3.7.9-6.8,2.8-9.1a21.67,21.67,0,0,1,6.9-5.2,28.29,28.29,0,0,1,9.1-2.3c3.1-.3,6.2-.5,9.3-.5a50.35,50.35,0,0,1,23.3,5.2c6.6,3.4,10.3,10,10.9,19.6h47.7c-.9-11.4-3.9-20.7-8.7-28.1a55.23,55.23,0,0,0-18.2-17.8,76.89,76.89,0,0,0-24.9-9.6,136.6,136.6,0,0,0-28.8-2.8,153.35,153.35,0,0,0-29,2.7,77.6,77.6,0,0,0-25.5,9.3,50.12,50.12,0,0,0-18.2,17.8c-4.6,7.5-6.9,17.3-6.9,29,0,8,1.6,14.8,5,20.3a44.21,44.21,0,0,0,13,13.9,79.28,79.28,0,0,0,18.5,8.9,210.42,210.42,0,0,0,21.4,5.9c18,3.7,31.9,7.5,42,11.2s15,9.4,15,16.9a19,19,0,0,1-3.2,11.2,22.72,22.72,0,0,1-8,7.1,40,40,0,0,1-10.7,3.9,46.88,46.88,0,0,1-11.2,1.2,50.26,50.26,0,0,1-14.2-1.8,38.22,38.22,0,0,1-12.3-5.5,29.75,29.75,0,0,1-8.7-9.6,26.78,26.78,0,0,1-3.4-13.9H1690c.5,12.3,3.2,22.4,8.4,30.6a60.56,60.56,0,0,0,19.4,19.6,81.76,81.76,0,0,0,27.1,10.7,153.61,153.61,0,0,0,31.2,3.2,163.64,163.64,0,0,0,30.6-3,76.91,76.91,0,0,0,26.7-10.5,59.05,59.05,0,0,0,18.9-19.6c4.8-8.2,7.3-18.2,7.3-30.3,0-8.5-1.6-15.7-5-21.4l.1.2ZM1646.8,273.2h-50.2V328h-30.5v33.7h30.5V469.6c0,9.3,1.6,16.6,4.6,22.3a33.38,33.38,0,0,0,12.6,13.2,52.08,52.08,0,0,0,18.3,6.2,148.4,148.4,0,0,0,22.1,1.6c5,0,10-.2,15.3-.4a112.2,112.2,0,0,0,14.1-1.4v-39a48.47,48.47,0,0,1-7.5,1.1c-2.7.2-5.5.3-8.2.4-8.5,0-14.1-1.4-16.9-4.3s-4.3-8.5-4.3-16.9V361.8h36.9V328.1h-36.9l.1-54.9Zm-144,167c0,2.8-.4,6.6-.9,11.4a34.65,34.65,0,0,1-16.9,25.8c-5.3,3.4-13.2,5-23,5a68.2,68.2,0,0,1-11.8-1.1,31.38,31.38,0,0,1-10-3.7,20,20,0,0,1-6.8-7.3,24,24,0,0,1-2.5-11.4,26.08,26.08,0,0,1,2.5-11.8,25.54,25.54,0,0,1,6.6-7.7,33.2,33.2,0,0,1,9.6-4.8,102.09,102.09,0,0,1,11.2-2.9c4-.7,8.1-1.3,12.1-1.8s7.8-1.1,11.6-1.8a73.61,73.61,0,0,0,10.3-2.7,21.43,21.43,0,0,0,8-4.5v19.3Zm50.2,30.1V375q0-16.5-7.5-26.7a51.29,51.29,0,0,0-19.1-15.7,94.6,94.6,0,0,0-25.8-7.7,218.37,218.37,0,0,0-28-2,162.11,162.11,0,0,0-30.3,3,82.35,82.35,0,0,0-27.1,10.2,63.14,63.14,0,0,0-19.8,18.7c-5.2,7.8-8.2,17.6-8.9,29.4h50.2c.9-10,4.3-16.9,10-21.2s13.4-6.4,23.3-6.4a98.22,98.22,0,0,1,12.6.9,27,27,0,0,1,10.3,3.6,19.73,19.73,0,0,1,7.1,7.5c1.8,3.2,2.7,7.5,2.7,13,.2,5.2-1.2,9.1-4.6,11.9a34.55,34.55,0,0,1-13.5,6.2,135.25,135.25,0,0,1-19.4,3.2c-7.3.7-14.8,1.6-22.3,2.8a218,218,0,0,0-22.4,4.8,60,60,0,0,0-19.8,9.1,46.77,46.77,0,0,0-14.2,16c-3.7,6.8-5.5,15.3-5.5,25.6,0,9.4,1.6,17.6,4.8,24.4a45.45,45.45,0,0,0,13.2,16.9,57,57,0,0,0,19.8,10,90.54,90.54,0,0,0,24.4,3.2,110.63,110.63,0,0,0,33.3-5,66.45,66.45,0,0,0,28.3-17.3c.2,3,.7,6,1.2,9.1a69.87,69.87,0,0,0,2.3,8.7h50.9c-2.3-3.7-4.1-9.4-5-16.9a209.29,209.29,0,0,1-1.4-23.7l.2-.3ZM1346.1,343.9a49.1,49.1,0,0,0-20.3-15.1c-8.5-3.7-19.6-5.5-33.1-5.5-9.4,0-19.1,2.5-29,7.3s-18,12.6-24.4,23.1h-1.1V258.4H1188V511.1h50.2v-96c0-18.7,3-32.1,9.3-40.2,6.1-8.2,16-12.1,29.7-12.1,11.9,0,20.5,3.7,25.1,11.2s7.1,18.7,7.1,33.8V511.1h50.2V398.6a154.52,154.52,0,0,0-3-31c-2-9.3-5.5-17.3-10.5-23.7Zm-265.5,88.7h-.7l-43.1-174.2h-52L941,430.4h-.7l-40.1-172H844.6l67,252.7h56.3l42-172h.7l42.7,172h55.2l30.3-112.2,37.8-140.5H1122l-41.4,174.2Z"/><path class="cls-3" d="M2821.7,463.7v47H2612.3A135.51,135.51,0,0,1,2633.44,459c12.53-18.77,36.67-41.46,71.76-67.44,22.69-16.87,36.94-29.5,43.56-38.62,7-9.64,10.52-19.12,10.52-28.18A35,35,0,0,0,2748,298.71c-7.38-7.09-16.71-10.68-27.72-10.68-11.41,0-20.95,3.71-28.36,11-6.27,6.21-10.6,15.82-13.15,29.25l-61-4.93c2.94-16.45,7.61-29.58,13.92-39.09,7-10.63,17.18-18.92,30.15-24.66,13.29-5.88,32.27-8.86,56.42-8.86,25.29,0,45.07,2.85,58.8,8.48a68.2,68.2,0,0,1,31.39,25.08,65.7,65.7,0,0,1,11.39,37.89c0,15-4.48,29.52-13.31,43.24-9.08,14.12-26.1,30-50.58,47.29-15.36,10.62-25.38,17.87-30.65,22.19s-11.46,10-18.38,16.77l-12.2,12Z"/></g></g></svg>